<?xml version="1.0" standalone="no"?>
<!DOCTYPE svg PUBLIC "-//W3C//DTD SVG 20010904//EN"
 "http://www.w3.org/TR/2001/REC-SVG-20010904/DTD/svg10.dtd">
<svg version="1.0" xmlns="http://www.w3.org/2000/svg"
 width="151.000000pt" height="151.000000pt" viewBox="0 0 151.000000 151.000000"
 preserveAspectRatio="xMidYMid meet">
<metadata>
Created by potrace 1.14, written by Peter Selinger 2001-2017
</metadata>
<g transform="translate(0.000000,151.000000) scale(0.100000,-0.100000)"
fill="#000000" stroke="none">
<path d="M903 1370 c-37 -22 -47 -39 -79 -132 l-23 -69 25 -9 c14 -6 27 -10
29 -10 2 0 19 21 36 48 38 54 78 94 131 130 l38 24 -37 19 c-47 24 -80 24
-120 -1z"/>
<path d="M533 1372 c-35 -22 -42 -282 -8 -282 20 0 118 130 138 182 8 21 -33
72 -74 93 -32 17 -39 18 -56 7z"/>
<path d="M470 1355 c-7 -8 -19 -15 -27 -15 -44 0 -21 -161 39 -274 11 -20 11
-20 18 -1 4 11 3 29 -3 40 -13 24 -15 162 -4 223 7 43 -1 54 -23 27z"/>
<path d="M784 1348 c-45 -24 -174 -166 -174 -191 0 -9 95 -17 130 -11 37 6 39
8 65 81 15 42 27 87 28 101 2 28 -18 36 -49 20z"/>
<path d="M1018 1303 c-78 -60 -152 -153 -120 -153 4 0 35 26 68 58 34 32 91
72 130 91 57 28 65 35 49 42 -40 16 -65 8 -127 -38z"/>
<path d="M343 1308 c-29 -32 -49 -79 -48 -108 10 -161 64 -315 129 -369 14
-12 16 -9 16 33 0 25 9 69 20 98 25 67 25 67 -6 131 -28 58 -54 155 -54 205 0
39 -26 44 -57 10z"/>
<path d="M1095 1279 c-62 -31 -165 -123 -165 -147 0 -8 6 -12 14 -9 27 10 95
27 103 26 4 -1 32 -1 61 0 51 1 54 2 68 37 8 20 16 55 17 78 3 53 -16 56 -98
15z"/>
<path d="M236 1211 c-33 -36 -21 -111 35 -222 32 -65 104 -159 122 -159 8 0 8
3 1 8 -39 27 -99 189 -110 302 -5 41 -7 78 -6 83 4 15 -25 6 -42 -12z"/>
<path d="M1211 1217 c-5 -7 -12 -24 -16 -38 -5 -21 -1 -27 27 -39 22 -10 36
-25 44 -48 25 -79 64 -58 64 35 0 44 -4 55 -24 68 -37 25 -83 35 -95 22z"/>
<path d="M750 1133 c-14 -2 -29 -8 -33 -12 -9 -9 63 -41 91 -41 10 0 23 -5 29
-11 7 -7 28 -12 48 -13 43 -1 57 26 28 55 -19 20 -113 32 -163 22z"/>
<path d="M1018 1125 c-96 -19 -94 -34 7 -40 70 -5 115 -24 115 -51 0 -8 20
-34 44 -58 38 -36 46 -51 52 -94 7 -59 13 -58 76 2 75 71 86 120 30 132 -70
15 -77 20 -90 62 -10 28 -21 44 -35 47 -46 12 -144 11 -199 0z"/>
<path d="M564 1088 c-51 -47 -81 -98 -100 -173 -12 -44 -11 -48 1 -31 8 11 15
26 15 33 0 37 118 175 162 189 27 8 22 24 -7 24 -16 0 -43 -16 -71 -42z"/>
<path d="M663 1093 c-64 -12 -183 -172 -183 -244 1 -32 2 -31 19 19 28 81 82
136 181 184 54 26 61 32 45 39 -22 8 -29 8 -62 2z"/>
<path d="M735 1055 c-137 -41 -235 -150 -229 -256 2 -44 49 -137 62 -124 3 3
5 29 3 59 -5 103 76 210 201 269 37 18 68 35 68 39 0 6 -30 19 -55 24 -5 1
-28 -4 -50 -11z"/>
<path d="M947 1063 c-4 -3 -7 -14 -7 -24 0 -10 -10 -24 -22 -30 -33 -17 -33
-18 -14 -32 9 -7 19 -28 22 -47 8 -51 20 -57 34 -16 11 35 18 39 75 49 29 4
21 46 -15 80 -29 26 -59 34 -73 20z"/>
<path d="M1040 1068 c0 -2 9 -21 20 -43 11 -22 20 -45 20 -52 0 -6 10 -29 22
-49 44 -75 24 -196 -48 -291 -47 -62 -19 -55 48 12 87 85 122 155 116 227 -4
41 -12 57 -34 78 -16 14 -41 45 -57 68 -15 23 -34 42 -41 42 -8 0 -21 3 -30 6
-9 3 -16 4 -16 2z"/>
<path d="M876 1034 c-6 -16 17 -29 34 -19 16 10 12 22 -9 28 -12 3 -22 -1 -25
-9z"/>
<path d="M792 982 c-71 -77 -132 -216 -138 -317 l-4 -60 23 66 c31 87 76 165
138 239 29 34 49 67 47 77 -5 29 -37 27 -66 -5z"/>
<path d="M702 944 c-72 -57 -131 -188 -117 -257 8 -34 34 -91 40 -85 2 2 7 30
10 63 10 85 39 171 80 239 19 32 35 60 35 62 0 10 -18 2 -48 -22z"/>
<path d="M848 928 c-80 -85 -163 -241 -175 -324 -6 -45 -5 -46 18 -39 33 9
142 123 178 187 31 54 48 138 37 183 -8 33 -22 32 -58 -7z"/>
<path d="M1015 941 c-44 -9 -62 -55 -57 -142 5 -89 -17 -152 -75 -221 -24 -27
-43 -51 -43 -53 0 -2 21 3 46 11 89 27 141 73 192 169 35 66 38 169 6 211 -23
32 -28 34 -69 25z"/>
<path d="M1324 876 c-22 -22 -54 -53 -71 -68 -17 -15 -45 -52 -61 -81 -28 -49
-91 -118 -139 -152 -24 -17 -84 -40 -141 -55 -46 -12 -48 -30 -4 -30 113 1
301 81 384 163 51 50 108 153 108 194 0 25 -20 74 -29 72 -3 -1 -24 -20 -47
-43z"/>
<path d="M142 885 c-11 -8 -22 -28 -24 -44 l-4 -29 120 -36 c66 -19 122 -33
124 -31 12 12 -14 39 -83 87 -93 65 -107 70 -133 53z"/>
<path d="M230 895 c0 -12 152 -115 161 -109 7 4 -10 28 -42 60 -43 44 -60 54
-86 54 -18 0 -33 -2 -33 -5z"/>
<path d="M912 807 c-20 -64 -66 -129 -144 -203 -54 -50 -67 -68 -57 -75 36
-23 108 2 154 52 49 54 76 122 76 186 0 75 -13 93 -29 40z"/>
<path d="M62 777 c-18 -21 -21 -89 -5 -127 7 -19 27 -48 42 -65 16 -16 38 -48
49 -70 11 -22 30 -51 42 -63 l23 -24 51 50 c28 27 68 66 90 85 36 32 37 35 20
45 -15 8 -19 21 -17 56 1 41 -2 48 -25 60 -93 47 -250 78 -270 53z"/>
<path d="M396 764 c-9 -8 -16 -25 -17 -37 0 -12 -3 -35 -5 -51 -6 -32 14 -68
51 -92 24 -16 29 -15 90 11 36 15 65 30 65 33 0 7 -98 123 -119 140 -20 16
-46 15 -65 -4z"/>
<path d="M1305 622 c-11 -2 -38 -17 -60 -32 -66 -45 -143 -80 -219 -100 -66
-17 -69 -19 -41 -26 37 -10 162 -10 230 -1 79 10 107 17 154 38 33 14 41 22
33 32 -6 7 -10 27 -10 45 1 18 -1 34 -3 36 -7 7 -64 12 -84 8z"/>
<path d="M518 572 c-32 -15 -58 -32 -58 -37 0 -35 108 -155 140 -155 7 0 60
132 60 149 0 12 -62 71 -74 70 -6 0 -37 -13 -68 -27z"/>
<path d="M312 502 c-39 -37 -72 -74 -72 -83 0 -20 26 -43 39 -35 9 6 106 140
125 174 19 32 -26 5 -92 -56z"/>
<path d="M408 533 c-24 -28 -108 -155 -108 -163 0 -8 40 -26 82 -36 20 -4 37
2 72 28 25 18 47 39 50 46 3 7 -14 42 -38 78 -40 59 -44 63 -58 47z"/>
<path d="M680 506 c0 -3 -11 -35 -25 -72 l-25 -67 31 7 c43 8 152 107 136 123
-8 8 -117 16 -117 9z"/>
<path d="M812 478 c-6 -13 -18 -57 -26 -99 -8 -41 -24 -99 -36 -129 -11 -29
-19 -58 -17 -64 3 -8 34 -9 97 -5 91 5 93 6 126 42 20 21 34 47 34 62 0 56
-113 215 -153 215 -8 0 -19 -10 -25 -22z"/>
<path d="M1330 467 c-74 -26 -99 -30 -197 -31 -62 -1 -113 -4 -113 -8 0 -26
225 -34 327 -11 74 16 91 27 98 61 5 28 -7 27 -115 -11z"/>
<path d="M153 455 c32 -63 121 -125 197 -138 28 -5 23 -1 -28 23 -36 17 -88
54 -124 87 -49 47 -58 52 -45 28z"/>
<path d="M995 430 c3 -5 8 -10 11 -10 2 0 4 5 4 10 0 6 -5 10 -11 10 -5 0 -7
-4 -4 -10z"/>
<path d="M742 400 c-11 -11 -36 -28 -54 -38 -18 -10 -44 -38 -59 -63 l-26 -44
44 -27 c23 -16 47 -28 52 -28 11 0 57 105 66 150 3 19 9 43 11 53 7 23 -7 22
-34 -3z"/>
<path d="M977 375 c14 -25 34 -50 45 -56 56 -30 294 16 355 69 15 13 23 21 16
18 -6 -4 -52 -12 -102 -20 -93 -14 -198 -5 -291 23 -51 16 -51 15 -23 -34z"/>
<path d="M460 354 c-48 -44 -57 -67 -36 -99 32 -48 139 -27 180 35 33 50 33
70 2 70 -13 0 -29 7 -36 15 -22 26 -67 18 -110 -21z"/>
<path d="M1250 313 c-25 -8 -85 -16 -134 -19 -49 -2 -91 -6 -93 -8 -9 -8 111
-17 150 -11 43 8 127 40 127 50 0 3 -1 5 -2 4 -2 -1 -23 -8 -48 -16z"/>
</g>
</svg>
